<?xml version="1.0" encoding="UTF-8"?><svg version="1.1" width="64px" height="64px" viewBox="0 0 64.0 64.0" xmlns="http://www.w3.org/2000/svg" xmlns:xlink="http://www.w3.org/1999/xlink"><defs><clipPath id="i0"><path d="M375,0 L375,858 L0,858 L0,0 L375,0 Z"></path></clipPath><clipPath id="i1"><path d="M61.087,40.642 L61.0705877,40.6935522 C60.8117055,41.464614 60.4641155,42.4637364 60.1165253,43.1587781 C55.4819916,52.6907781 34.0307203,63.2818894 25.5561441,61.9580006 C24.6292372,61.8256116 23.4375,61.5608337 22.6430084,61.2960559 C25.6885594,62.2227781 31.3824153,61.1636672 38.2680084,58.2511116 C49.0730931,53.621283 59.0034806,45.9930892 61.0187497,40.8278383 L61.087,40.642 Z M62.265,34.807 L62.2256004,35.0848657 C62.154479,35.6084742 62.1027544,36.1256183 62.1027544,36.5393337 C62.1027544,36.6717225 62.1027544,36.8041113 61.9703391,36.9365003 C60.3813559,42.6292225 49.1260594,51.4992781 36.8114406,56.7948337 C31.2651531,59.1583547 26.4680491,60.3359041 22.9774237,60.4560628 C23.0332256,60.5636022 23.0983075,60.6673709 23.1726694,60.7665003 C23.0955806,60.6637359 23.028465,60.5609712 22.9713225,60.4562719 C21.3811075,60.5104744 20.062345,60.3450484 19.0677966,59.9721672 C18.273305,59.5750003 17.2139831,59.1778337 16.5519069,58.7806672 C18.1681884,59.4506991 20.2861934,59.6161744 22.7259806,59.3753416 C22.728005,59.2223722 22.7444859,59.0677141 22.7754238,58.9130559 C22.7479775,59.0777 22.7319091,59.2309684 22.7272184,59.3752194 C36.1199087,58.0525245 59.2068443,44.4884509 62.2289003,34.9317123 L62.265,34.807 Z M11.113,55.273 L11.1518637,55.3014528 C13.4216086,56.8934985 18.2089127,56.7798333 24.5221206,55.0126391 C24.6014959,54.9007859 24.6815744,54.7886987 24.7616525,54.6766116 C24.6819959,54.7881084 24.6042562,54.8996053 24.5284334,55.0108716 C26.5369541,54.4483859 28.6998387,53.7185913 30.9851694,52.8231672 C32.4417372,52.4260003 32.9713984,53.3527225 32.9713984,53.3527225 C33.1038134,53.4851116 33.1038134,54.0146672 32.3093222,54.4118337 C28.9836334,55.7129309 25.9211041,56.6456791 23.2302937,57.2100778 L23.1726694,57.3243894 C23.1848481,57.2878606 23.1978669,57.2510519 23.2116872,57.2139759 C18.5192397,58.1958828 14.9594366,58.0561687 13.1091103,56.7948337 C12.55738,56.3535374 11.8217397,55.8203044 11.2087061,55.3483625 L11.113,55.273 Z M6.505,50.196 L6.48834747,50.1753894 C7.94491525,52.0288337 11.5201271,52.5583894 16.6843222,51.7640559 C17.6112288,51.7640559 18.273305,52.5583894 18.4057203,52.8231672 C18.5381356,53.087945 18.6705509,53.6175003 18.1408897,53.7498894 C13.3739406,54.5442225 9.93114406,54.1470559 8.34216103,52.4260003 C7.88816586,51.8586194 7.23960135,51.0967079 6.73001495,50.4737468 L6.505,50.196 Z M51.9067797,28.5960003 C52.1716103,29.3903334 51.9067797,29.9198891 51.6419491,30.3170559 C45.8156778,35.6126113 37.2086866,40.9081669 28.2044491,44.7474447 C15.2666152,50.1264629 5.42678826,50.6735524 3.95966177,46.3887134 L3.952,46.365 L3.91866393,46.3030142 C3.89797405,46.269917 3.87314619,46.2368198 3.84004237,46.2037225 C3.57521188,45.8065559 3.44279662,45.2770003 3.17796609,44.8798338 C5.69385594,48.1895559 14.9629237,47.5276116 26.8802966,42.3644447 C35.8845338,38.5251669 44.4915253,33.0972225 50.3177966,27.9340556 C51.3771187,27.4045003 51.7743644,28.1988334 51.9067797,28.5960003 Z M60.5137713,20.3878891 C60.9110169,21.4470003 61.3082628,22.5061112 61.4406778,23.3004447 C61.5730931,23.9623891 61.5730931,24.7567225 61.3082628,25.6834447 C59.7192797,31.5085559 49.7881356,40.1138337 37.7383475,46.3361116 C36.414195,46.8656669 35.6197034,45.9389447 35.8845338,45.0122225 C36.0169491,44.6150559 36.2817797,44.3502781 36.5466103,44.2178894 C48.7288134,37.8632225 58.9247881,29.1255556 60.5137713,23.1680556 C60.7786016,22.1089447 60.7786016,21.1822225 60.5137713,20.3878891 Z M62.14,27.387 L62.3675847,28.8607781 L62.3675847,29.9198891 C62.3675847,30.4494447 62.3675847,30.8466112 62.2351694,31.5085559 C61.3082628,35.0830559 56.9385594,39.7166669 50.9798728,44.2178894 C50.0529663,44.8798337 49.523305,43.9531116 49.6557203,43.2911669 C49.7881356,42.7616116 50.1853813,42.3644447 50.3177966,42.2320559 C56.5413134,37.5984447 61.0434322,32.8324447 61.9703391,29.1255556 C62.0696505,28.6290973 62.1689619,28.1326391 62.156548,27.6361808 L62.14,27.387 Z M1.45656778,40.6433891 C1.58898306,41.0405559 1.72139831,41.3053337 1.98622881,41.5701116 L1.982,41.557 L1.975,41.538 L1.971,41.525 L1.966,41.51 L1.958,41.485 L1.948,41.456 L1.941,41.434 L1.933,41.411 L1.92,41.372 L1.917,41.363 L1.91,41.34 L1.904,41.324 L1.899,41.307 L1.893,41.289 L1.89,41.281 L1.878,41.245 L1.877,41.242 L1.87311608,41.229297 C1.6484348,40.5461239 1.43765132,39.8490558 1.32415253,39.0547225 C3.70762712,42.3644447 12.7118644,41.5701116 24.2319916,36.6717225 C38.9300847,30.4494447 52.3040253,19.8583334 54.1578391,12.9741112 C54.534177,11.3436375 54.3162972,10.1884436 53.5041992,9.28339694 L53.389,9.161 L53.8599047,9.6519775 L54.8530191,10.7359115 C55.0185381,10.9138091 55.1840572,11.0875695 55.3495762,11.2530557 C56.1440678,12.1797779 56.2764831,13.3712778 55.8792372,14.9599447 C54.0254238,21.9765556 40.3866525,32.7000559 25.2913134,39.0547225 C12.3254768,44.6961392 2.51619661,45.0051255 1.38987352,40.4750124 L1.35589494,40.3239156 C1.38945256,40.4357066 1.42301019,40.5427362 1.45656778,40.6433891 Z M1.29084084,39.3955931 C1.52263684,40.1796125 1.75443281,40.8748619 1.98622881,41.5701116 L1.87311608,41.229297 L1.877,41.242 L1.878,41.245 L1.89,41.281 L1.893,41.289 L1.899,41.307 L1.904,41.324 L1.91,41.34 L1.917,41.363 L1.92,41.372 L1.933,41.411 L1.941,41.434 L1.948,41.456 L1.958,41.485 L1.966,41.51 L1.971,41.525 L1.975,41.538 L1.982,41.557 L1.98622881,41.5701116 C1.65956559,41.1618636 1.43363551,40.6529028 1.33950172,40.0742857 L1.326,39.973 L1.325,39.968 L1.324,39.958 L1.293,39.589 L1.293,39.588 Z M0.662076281,29.6551112 L0.674588594,29.5796666 C0.346231531,28.9843097 0.146253437,28.3667634 0.2648305,27.5368891 L0.272285356,27.4224374 C0.281697042,27.3461363 0.298936042,27.2698351 0.317664875,27.1935341 L0.306,27.239 L0.529661031,25.6834447 L0.662,25.15 L0.595868656,25.5510556 L0.794491531,24.7567225 C0.529661031,25.8158334 0.662076281,26.7425556 1.19173728,27.2721112 L1.18154297,27.3029525 C1.44091741,27.6128984 1.79742284,27.8396716 2.25105931,28.0664447 C2.64830509,28.5960003 2.38347456,29.9198891 2.38347456,29.9198891 C2.25105931,30.3170559 2.11864406,30.8466112 1.85381356,30.7142225 C0.907990326,30.2414051 0.367519895,29.5659515 0.184145996,28.6396153 L0.176895205,28.5900346 C0.272665729,29.0080508 0.448174707,29.3699659 0.662076281,29.6551112 Z M42.847,2.269 L43.2870763,2.46243336 C43.8400423,2.70073336 44.4120763,2.93903335 44.8887712,3.17733334 C46.4777544,3.97166669 47.1398306,5.29555559 46.6101694,7.28138894 C45.0211866,13.2388891 33.3686441,22.3737225 20.6567797,27.8016669 C18.273305,28.8607781 15.8898306,29.6551113 13.7711866,30.3170559 C12.5794491,30.4494447 12.4470339,28.8607781 12.976695,28.0664447 C13.1091103,27.8016669 13.2415253,27.8016669 13.3739406,27.6692781 C15.3601694,27.1397225 17.4788134,26.3453891 19.7298728,25.4186669 C31.7796609,20.2555 42.7701272,11.5178334 44.226695,5.95750003 C44.6806901,4.25535717 44.1618384,3.03954085 42.9203008,2.31005104 L42.847,2.269 Z M2.78072034,18.1372778 C2.78072034,18.5344447 2.64830509,18.7992225 2.51588984,19.1963891 C2.11864406,19.8583334 1.85381356,20.6526669 1.58898306,21.4470003 C1.58898306,21.3146112 1.72139831,21.0498334 1.72139831,20.9174447 C1.98622881,20.1231112 2.51588984,18.9316113 2.78072034,18.1372778 Z M14.9627944,17.0648181 L14.9620663,17.1542138 L14.9583272,17.2323948 C14.9112587,17.8792398 14.4007835,18.7267831 9.13665253,19.4611669 C7.5476695,19.7259447 5.29661016,19.5935556 4.23728813,18.4020556 L4.242,18.393 L4.244,18.388 L4.246,18.384 L4.26,18.357 L4.27,18.337 L4.276,18.326 L4.294,18.29 L4.299,18.281 L4.309,18.261 L4.336,18.208 L4.414,18.057 L4.428,18.03 L4.436,18.014 L4.438,18.01 L4.442,18.003 L4.449,17.991 L4.449,17.99 L4.477,17.938 L4.63943817,17.6420454 C4.91407722,17.1517162 5.20833333,16.6810001 5.56144069,16.1514447 C6.62076272,17.4753334 9.93114406,17.4753334 14.4332628,16.0190556 C14.9298199,15.8949412 14.9608548,16.9344008 14.9627944,17.0648181 Z M57.923,14.994 L58.6599575,16.2838334 L59.0572034,16.9457778 C59.4296212,17.9386946 59.4528973,18.0007519 59.4543521,18.4409709 L59.4544491,18.6668334 C59.0572034,18.5344447 58.2627119,16.9457778 58.1302966,16.2838334 C58.1302966,15.8072334 58.082627,15.4259534 57.9586864,15.0828015 L57.923,14.994 Z M3.84004238,16.8133891 L3.841,16.835 L3.841,16.836 L3.841,16.856 L3.841,16.867 L3.841,16.868 L3.842,16.894 L3.842,16.905 L3.842,16.911 L3.842,16.913 L3.843,16.919 L3.843,16.92 L3.843,16.945 L3.843,16.947 L3.844,16.965 L3.844,16.967 L3.844,16.969 L3.844,16.97 L3.844,16.987 L3.845,16.997 L3.845,16.998 L3.845,16.999 L3.845,17.005 L3.845,17.007 L3.845,17.027 L3.846,17.04 L3.846,17.042 L3.84624934,17.0554125 L3.847,17.064 L3.847,17.068 L3.847,17.07 L3.848,17.079 L3.849,17.092 L3.849,17.093 L3.85,17.109 L3.85,17.111 L3.851,17.115 L3.851,17.121 L3.851,17.122 L3.852,17.127 L3.852,17.132 L3.853,17.142 L3.853,17.15 L3.854,17.154 L3.855,17.166 L3.855,17.168 L3.856,17.183 L3.859,17.223 L3.86,17.232 L3.862,17.26 L3.863,17.268 L3.863,17.272 L3.863,17.275 L3.863,17.276 L3.866,17.296 L3.867,17.303 L3.868,17.312 L3.869,17.32 L3.871,17.336 L3.874,17.353 L3.877,17.374 L3.88,17.394 L3.884,17.425 L3.886,17.436 L3.886,17.44 L3.887,17.449 L3.889,17.461 L3.892,17.478 L3.895,17.499 L3.896,17.506 L3.899,17.52 L3.903,17.539 L3.904,17.543 L3.906,17.553 L3.907,17.56 L3.908,17.563 L3.909,17.566 L3.91,17.572 L3.914,17.589 L3.918,17.607 L3.922,17.63 L3.925,17.642 L3.927,17.65 L3.932,17.673 L3.932,17.676 L3.934,17.684 L3.936,17.694 L3.93935381,17.707014 L3.944,17.724 L3.948,17.739 L3.949,17.74 L3.959,17.774 L3.961,17.783 L3.965,17.796 L3.969,17.811 L3.973,17.824 L3.974,17.828 L3.975,17.832 L3.977,17.836 L3.983,17.857 L3.984,17.86 L3.987,17.873 L3.991,17.885 L3.9952165,17.8993916 L4.003,17.919 L4.01,17.938 L4.012,17.945 L4.02,17.965 L4.029,17.99 L4.03,17.991 L4.034,18.003 L4.037,18.01 L4.038,18.014 L4.04,18.017 L4.044,18.03 L4.051,18.048 L4.055,18.057 L4.063,18.078 L4.066,18.085 L4.075,18.103 L4.078,18.109 L4.079,18.112 L4.084,18.123 L4.091,18.137 L4.095,18.144 L4.097,18.149 L4.12,18.196 L4.126,18.208 L4.127,18.211 L4.143,18.243 L4.152,18.26 L4.153,18.261 L4.158,18.27 L4.165,18.281 L4.17,18.29 L4.173,18.295 L4.189,18.321 L4.192,18.326 L4.198,18.337 L4.21,18.357 L4.212,18.36 L4.226,18.384 L4.229,18.388 L4.232,18.393 L4.23728813,18.4020556 C3.87615562,17.9206414 3.8433254,17.5486397 3.84034083,16.987653 L3.84004238,16.8133891 Z M31.6472456,0 C34.4279662,0 35.7521187,1.05911113 35.2224575,3.17733334 C34.5603813,5.69272225 30.9851694,9.26722228 26.3506356,12.4445557 C25.4237287,12.8417222 24.4968222,11.6502223 24.7616525,11.1206667 C24.7616525,10.9882779 24.8940678,10.9882779 24.8940678,10.9882779 C28.9989406,8.20811119 32.0444916,5.16316672 32.7065678,2.91255556 C33.1360226,1.19507809 32.0855993,0.260909598 30.0493746,0.110050076 L29.86,0.098 L30.7840945,0.0343230417 C31.0881591,0.014709875 31.3824152,0 31.6472456,0 Z M20.6283556,1.87326256 C20.4248522,1.95185906 20.2610013,2.02451919 20.0706728,2.10777216 C19.9605272,2.15121297 19.8615256,2.19398894 19.7529525,2.24438456 C19.5710947,2.32068984 19.3530516,2.40843956 19.0677966,2.51538891 C18.6374471,2.62295489 18.5567565,2.64312352 17.973431,2.93094651 L17.6654104,3.0840858 C17.6070907,3.11320748 17.5450211,3.14423612 17.4788134,3.17733334 C16.9491525,3.44211112 16.9491525,3.44211112 16.0222456,3.97166669 L15.8813951,4.06533918 C15.6085217,4.24585879 15.5014124,4.30705188 14.6980931,4.76600003 C14.5935868,4.83565705 14.5165737,4.88698889 14.4429443,4.93686883 L14.3320244,5.01270899 C14.1794785,5.11800174 13.9922486,5.25123348 13.5774588,5.5473905 C15.3882853,4.35113494 17.4694147,3.24980781 19.5974575,2.38300003 C19.9410903,2.19213097 20.2847231,2.02327644 20.6283556,1.87326256 Z M7.94491525,52.1612225 C7.41525425,51.4992781 6.75317797,50.8373337 6.35593222,50.1753894 C6.80992736,50.7427703 7.45849187,51.5046818 7.96807827,52.1276429 L8.00127859,52.168942 C7.98274818,52.1639243 7.96383171,52.1612225 7.94491525,52.1612225 Z M4.24364407,46.8052977 C3.97245763,46.2249048 3.97245763,45.7800781 3.97245763,45.6741669 C3.84004237,45.8065559 3.70762712,45.5417781 3.84004237,45.9389447 C3.86019252,46.0425534 3.88466056,46.143722 3.91338663,46.2424506 L3.952,46.365 L4.02625132,46.5015976 L4.10487288,46.6008894 C4.13797669,46.6670838 4.1710805,46.7250038 4.20418431,46.7787868 L4.316,46.951 Z M0.369690586,35.1281146 L0.333,35.04 L0.331,35.034 L0.294164123,34.9311428 C0.221656441,34.7078065 0.166134634,34.4719489 0.132960688,34.2289309 L0.13241525,34.1563334 C0.13241525,33.9503109 0.123507625,33.7175709 0.110313031,33.4719722 C0.115528063,33.3923103 0.122888781,33.3115228 0.13241525,33.2296113 L0.118872129,33.3366372 L0.108,33.442 L0.0874920392,33.089554 C0.0567712898,32.6104865 0.0192088343,32.1108981 0.00541268215,31.6825943 L0.001,31.414 L0.00944525793,31.6315013 C0.0588512226,32.2881793 0.294256115,32.7588954 0.529661031,33.2296113 C9.40148306,42.6292225 49.2584747,18.2696669 49.6557203,7.94333341 C49.7881356,6.08988894 48.7288134,5.4279445 48.1991525,5.03077781 L49.2584747,5.69272225 L50.5826272,6.6194445 C51.6419491,7.54616672 52.039195,8.87005562 51.6419491,10.5911112 C49.9205509,17.2105556 36.9438559,27.4045003 22.7754238,33.3620003 C11.6716427,38.1509129 3.07374838,38.8238311 0.734116453,35.7485618 L0.66,35.646 L0.652267744,35.3380271 C0.640007073,35.0609911 0.617937865,34.7741484 0.595868656,34.4873059 C0.569385606,34.8315169 0.585275436,35.1757281 0.626588994,35.5029935 L0.644,35.623 L0.570436932,35.5108945 C0.494522923,35.3885527 0.427541514,35.2609529 0.369690586,35.1281146 Z M4.89936441,14.5627778 C5.07283168,14.2737233 5.27154856,13.9341796 5.48448917,13.5992651 L5.513,13.555 L5.428,13.649 L5.45478231,13.6175053 L5.514,13.553 L5.515,13.552 L5.516,13.551 L5.53683511,13.5290136 L5.559,13.505 L5.72473996,13.2767145 C5.82974564,13.1254129 5.92857452,12.9741113 6.03049179,12.8228097 L6.063,12.774 L6.072,12.763 L6.082,12.751 L6.12,12.706 L6.122,12.704 L6.127,12.698 L6.161,12.657 L6.18,12.635 L6.203,12.608 L6.21185293,12.5980203 L6.214,12.595 L6.229,12.579 L6.231,12.577 L6.239,12.568 L6.282,12.522 L6.284,12.52 L6.22166313,12.6084531 C5.85275423,13.1422451 5.5746822,13.6890112 5.29661016,14.4303891 L5.26849194,14.4768862 C5.16655138,15.1731203 5.19479059,15.6524787 5.56144069,16.0190556 C5.16419491,16.7140973 4.84143274,17.2602016 4.53729144,17.8249229 L4.477,17.938 L4.449,17.99 L4.449,17.991 L4.442,18.003 L4.438,18.01 L4.436,18.014 L4.428,18.03 L4.414,18.057 L4.38651392,18.1096107 L4.336,18.208 L4.309,18.261 L4.299,18.281 L4.294,18.29 L4.276,18.326 L4.27,18.337 L4.26,18.357 L4.246,18.384 L4.244,18.388 L4.242,18.393 L4.23728813,18.4020556 L4.232,18.393 L4.229,18.388 L4.226,18.384 L4.212,18.36 L4.21,18.357 L4.198,18.337 L4.192,18.326 L4.189,18.321 L4.173,18.295 L4.17,18.29 L4.165,18.281 L4.158,18.27 L4.153,18.261 L4.152,18.26 L4.14418365,18.2469124 L4.143,18.243 L4.127,18.211 L4.126,18.208 L4.12,18.196 L4.097,18.149 L4.095,18.144 L4.091,18.137 L4.084,18.123 L4.079,18.112 L4.078,18.109 L4.075,18.103 L4.066,18.085 L4.063,18.078 L4.055,18.057 L4.051,18.048 L4.044,18.03 L4.04,18.017 L4.038,18.014 L4.037,18.01 L4.034,18.003 L4.03,17.991 L4.029,17.99 L4.02,17.965 L4.012,17.945 L4.01,17.938 L4.003,17.919 L3.9952165,17.8993916 L3.991,17.885 L3.987,17.873 L3.984,17.86 L3.983,17.857 L3.977,17.836 L3.975,17.832 L3.974,17.828 L3.973,17.824 L3.969,17.811 L3.965,17.796 L3.961,17.783 L3.959,17.774 L3.949,17.74 L3.948,17.739 L3.944,17.724 L3.93935381,17.707014 L3.936,17.694 L3.934,17.684 L3.932,17.676 L3.932,17.673 L3.927,17.65 L3.925,17.642 L3.922,17.63 L3.918,17.607 L3.914,17.589 L3.91,17.572 L3.909,17.566 L3.908,17.563 L3.907,17.56 L3.906,17.553 L3.904,17.543 L3.903,17.539 L3.899,17.52 L3.896,17.506 L3.895,17.499 L3.892,17.478 L3.889,17.461 L3.887,17.449 L3.886,17.44 L3.886,17.436 L3.884,17.425 L3.88,17.394 L3.877,17.374 L3.874,17.353 L3.871,17.336 L3.869,17.32 L3.868,17.312 L3.867,17.303 L3.866,17.296 L3.86487023,17.2850244 L3.863,17.276 L3.863,17.275 L3.863,17.272 L3.863,17.268 L3.862,17.26 L3.86,17.232 L3.859,17.223 L3.856,17.183 L3.855,17.168 L3.855,17.166 L3.854,17.154 L3.853,17.15 L3.853,17.142 L3.852,17.132 L3.852,17.127 L3.851,17.122 L3.851,17.121 L3.851,17.115 L3.85,17.111 L3.85,17.109 L3.849,17.093 L3.849,17.092 L3.848,17.079 L3.847,17.07 L3.847,17.068 L3.847,17.064 L3.846,17.042 L3.846,17.04 L3.845,17.027 L3.845,17.007 L3.845,17.005 L3.845,16.999 L3.845,16.998 L3.845,16.997 L3.844,16.987 L3.844,16.97 L3.844,16.969 L3.844,16.967 L3.844,16.965 L3.843,16.947 L3.843,16.945 L3.843,16.92 L3.843,16.919 L3.842,16.913 L3.842,16.911 L3.842,16.905 L3.842,16.894 L3.841,16.868 L3.841,16.867 L3.841,16.856 L3.841,16.836 L3.841,16.835 L3.84004238,16.8133891 C3.84004238,16.681 3.84004238,16.5486112 3.97245763,16.2838334 C3.97722447,16.2758903 3.98201038,16.2679472 3.98681488,16.2600041 C4.02454078,16.0472991 4.13091444,15.8345941 4.23728813,15.6218891 L4.35040087,15.4937459 C4.57508216,15.2112133 4.78586562,14.7897302 4.89936441,14.5627778 Z M10.742,7.713 L10.8582847,7.59613725 C10.6751613,7.75580887 10.4983777,7.91576559 10.3283898,8.07572228 L10.333,8.07 L10.4522145,7.95208181 C10.6428892,7.76224264 10.7630427,7.64689842 10.9323342,7.50635309 L11.040763,7.41820419 C12.8455997,5.69022322 15.7335294,3.83059984 18.8029663,2.51538891 C19.5884656,2.18816263 20.3344156,1.9184515 21.0301519,1.70625553 C21.045959,1.70000827 21.0617662,1.69379826 21.0774107,1.68770254 L21.1236941,1.66983536 C21.2146348,1.635095 21.2938692,1.60724332 21.3262778,1.60292337 L21.3384174,1.60280143 L21.3353816,1.61617264 C21.3237831,1.62785892 21.2960884,1.64750852 21.2479073,1.67720182 L21.192735,1.71032007 C20.7045124,1.99717875 18.8694413,2.94288172 13.5774588,5.5473905 C13.5149988,5.59198644 13.4473791,5.64027675 13.3739406,5.69272225 L13.3179388,5.72073384 C12.9135384,5.99385597 12.523575,6.27150928 12.1506497,6.55206866 C12.1980124,6.51157856 12.2423654,6.47373375 12.2840492,6.43828659 C12.1606109,6.52450012 12.0548514,6.61438228 11.9173729,6.75183337 C11.4759887,7.08280561 11.4024247,7.13796765 10.7771304,7.68345891 L10.742,7.713 Z M30.432,62.487 L30.5590128,62.4822363 C33.1189287,62.3466666 36.5237798,61.4375753 40.5190678,59.8397781 C45.1536016,57.853945 49.6557203,55.2061672 52.9661016,52.4260003 C53.0985169,52.4260003 53.0985169,52.2936116 53.2309322,52.2936116 C53.2309322,52.2936116 53.2309322,52.4260003 53.3633475,52.4260003 C53.3633475,52.4260003 53.3633475,52.5583894 53.2309322,52.6907781 C53.2309322,52.8231672 52.9661016,53.2203337 52.4364406,53.6175003 C49.523305,56.0005003 45.5508475,58.3835003 41.4459747,60.1045559 C38.0031778,61.5608337 34.9576272,62.3551672 32.7065678,62.4875559 L30.432,62.487 Z M1.98622881,23.9623891 C1.58898306,23.4328334 1.45656778,22.7708891 1.58898306,21.9765556 C1.58898306,21.7117778 1.58898306,21.5793891 1.72139831,21.3146112 C1.98622881,20.5202778 2.25105931,19.8583334 2.64830509,19.064 C2.38347456,19.9907225 2.51588984,20.7850556 2.91313559,21.4470003 C2.88472987,21.5132669 2.85632416,21.5788569 2.82801528,21.6438181 C4.48751581,23.8195122 10.5362557,23.2684803 18.273305,19.9907225 C28.2044491,15.6218891 37.3411016,8.47288894 38.5328391,3.97166669 C38.9300847,2.25061112 38.4004238,1.1915 36.9438559,0.661944438 C37.2086866,0.529555563 37.2086866,0.529555563 38.0031778,0.794333344 C38.5328391,0.926722219 38.9300847,1.05911113 39.1949153,1.05911113 C40.9163134,1.72105556 41.5783897,2.91255556 41.0487287,4.76600003 C39.7245762,9.79677784 29.7934322,17.6077225 18.9353812,22.2413334 C10.3283898,25.8158334 3.70762712,26.4777781 1.98622881,23.9623891 Z M21.798,1.49 L22.8558778,1.13270562 C22.9118344,1.11046884 22.9725862,1.08617291 23.0402544,1.05911113 C27.0127119,-1.11022302e-16 29.5286016,0.529555563 28.9989406,2.78016669 C28.8665253,3.57450003 28.3368644,4.36883338 27.5423728,5.16316672 C26.8802966,5.4279445 25.4237287,5.16316672 25.1588984,4.89838894 C25.8209747,4.10405559 26.2182203,3.44211112 26.3506356,2.91255556 C26.7513061,1.2100456 24.9545493,0.719667658 21.9921247,1.44142178 L21.798,1.49 Z M1.284,39.474 L1.293,39.588 L1.293,39.589 L1.29409853,39.6277477 C1.29738531,39.7041857 1.30285274,39.7796566 1.31044016,39.8540999 L1.324,39.958 L1.325,39.968 L1.326,39.973 L1.35589494,40.3239156 C1.28981696,40.1037896 1.22373899,39.8652039 1.15766102,39.6204973 L0.959427123,38.8803535 C0.860310174,38.5134389 0.761193228,38.1605142 0.662076281,37.8632225 C0.794491531,38.2603891 0.926906781,38.6575559 1.19173728,39.0547225 C1.21873847,39.1492078 1.24573963,39.2423169 1.27274078,39.33419 C1.26415562,39.5070644 1.27219487,39.6716278 1.29085772,39.8308806 L1.28209809,39.606888 L1.284,39.474 Z M10.742,7.713 L10.8582847,7.59613725 C10.5582697,7.89422784 10.2917917,8.18765531 10.0635593,8.47288894 C9.64752675,8.88883869 9.23149419,9.22310947 8.87963072,9.60401394 C9.27427359,9.27062034 9.66891647,8.90120106 10.0635593,8.60527784 C9.72306296,9.05918261 9.47985127,9.51308738 9.33392424,9.96699215 L9.26906778,10.1939445 C9.13665253,10.5911112 9.13665253,10.9882779 9.40148306,11.2530557 C9.37715509,11.2773788 9.35300591,11.3017019 9.32902241,11.3260316 C10.2018998,12.2988917 13.0644466,12.0097886 16.6843222,10.4587223 C17.8760594,9.92916675 19.0677966,9.39961119 20.1271188,8.73766672 C20.5243644,8.60527784 21.0540253,9.26722228 21.1864406,9.39961119 C21.3188559,9.53200006 21.4512713,9.92916675 21.1864406,10.1939445 C19.8622881,10.9882779 18.4057203,11.7826112 16.8167372,12.3121667 C12.2650746,14.2624909 8.60746659,14.5527584 7.60004894,13.3083828 C7.58267888,13.3292563 7.56522072,13.3502206 7.5476695,13.3712778 C7.41525425,12.9741112 7.28283897,12.7093334 7.41525425,12.1797779 C7.41525425,12.047389 7.41525425,11.9150001 7.5476695,11.7826112 C7.62157321,11.6840925 7.70464297,11.5855739 7.79517352,11.4870552 L7.932,11.343 L7.755759,11.5242926 C7.63747282,11.6497448 7.5235935,11.779603 7.41525425,11.9150001 C7.41525425,11.7826112 7.5476695,11.5178334 7.5476695,11.3854445 C7.8125,10.855889 8.0773305,10.4587223 8.47457628,9.92916675 C8.56601838,9.86059881 8.6574605,9.78808497 8.74890263,9.71298766 C9.15141466,9.14786831 9.73990225,8.66409269 10.3283898,8.07572228 L10.331,8.072 L10.4954074,7.92962234 C10.5479921,7.88363127 10.5975797,7.84027346 10.6444427,7.79932189 L10.742,7.713 Z"></path></clipPath></defs><g transform="translate(-155.0 -534.0)"><g clip-path="url(#i0)"><g transform="translate(137.0 516.0)"><g transform="translate(18.75 18.750000000000004)"><g clip-path="url(#i1)"><polygon points="0,0 62.5,0 62.5,62.4999999 0,62.4999999 0,0" stroke="none" fill="#FFFFFF"></polygon></g></g></g></g></g></svg>