<?xml version="1.0" encoding="UTF-8"?>
<svg width="10px" height="10px" viewBox="0 0 10 10" version="1.1" xmlns="http://www.w3.org/2000/svg" xmlns:xlink="http://www.w3.org/1999/xlink">
    <title>Shape</title>
    <g id="BSC-QRG" stroke="none" stroke-width="1" fill="none" fill-rule="evenodd">
        <g id="使用指南" transform="translate(-343.000000, -255.000000)" fill="#FFFFFF" fill-rule="nonzero">
            <g id="Share" transform="translate(336.000000, 248.000000)">
                <path d="M12.3570787,17 C12.3131517,17 12.2685104,16.9921105 12.226369,16.9752558 C12.089588,16.9211053 11.9999482,16.7887774 11.9999482,16.6413877 L11.9999482,13.4253527 C9.3375401,13.5551703 7.61509955,15.098279 7.59724303,15.1144166 C7.48367552,15.2180555 7.31760982,15.2374206 7.18368587,15.1624706 C7.04976193,15.0878793 6.97833582,14.9358277 7.00583487,14.7844933 C7.01512026,14.7339289 7.23904111,13.5372397 7.99794348,12.3279991 C8.95708481,10.7996192 10.3378098,9.94562205 12.0073943,9.84174535 C12,9.60416667 11.9999482,8.95274022 11.9999482,8.75478624 L11.9999482,7.35870859 C11.9999482,7.21096033 12.0899451,7.0786324 12.2270832,7.02484055 C12.3638642,6.9706901 12.5195731,7.00690994 12.6199268,7.11556946 L16.9054932,11.7800395 C17.0319174,11.9181052 17.0315602,12.1307623 16.9040646,12.2677522 L12.6184983,16.8859613 C12.5495721,16.960194 12.4542182,17 12.3570787,17 Z" id="Shape"></path>
            </g>
        </g>
    </g>
</svg>