<?xml version="1.0" encoding="UTF-8"?>
<svg width="70px" height="24px" viewBox="0 0 70 24" version="1.1" xmlns="http://www.w3.org/2000/svg" xmlns:xlink="http://www.w3.org/1999/xlink">
    <title>编组</title>
    <defs>
        <polygon id="path-1" points="0.0814 0.048 9.8794 0.048 9.8794 11.93045 0.0814 11.93045"></polygon>
    </defs>
    <g id="BSC-QRG" stroke="none" stroke-width="1" fill="none" fill-rule="evenodd">
        <g id="Home备份-3" transform="translate(-290.000000, -20.000000)">
            <g id="编组" transform="translate(290.000000, 20.000000)">
                <path d="M48.6658879,23.4966886 L47,23.4966886 L47,24 L52,24 L52,23.4966886 L50.6559681,23.4966886 L50.6559681,15 C50.2392265,15.418462 49.5723322,15.4580817 48.9077741,15.4580817 L47.2523092,15.4580817 L47.2523092,15.9563092 L48.6658879,15.9563092 L48.6658879,23.4966886" id="Fill-1" fill="#FEFEFE"></path>
                <path d="M18.6649889,23.4966886 L17,23.4966886 L17,24 L22,24 L22,23.4966886 L20.6567915,23.4966886 L20.6567915,15 C20.2390163,15.418462 19.5755015,15.4580817 18.9082117,15.4580817 L17.253829,15.4580817 L17.253829,15.9563092 L18.6649889,15.9563092 L18.6649889,23.4966886" id="Fill-3" fill="#FEFEFE"></path>
                <path d="M54.64669,22.5390234 L53.188935,22.5390234 L53.188935,23 L57.8015938,23 L57.8015938,22.5390234 L56.4728437,22.5390234 L56.4728437,15.6444101 L59.7291551,15.6444101 L59.7291551,22.5390234 L58.5117737,22.5390234 L58.5117737,23 L63,23 L63,22.5390234 L61.5419184,22.5390234 L61.5419184,14.7695804 C61.1606192,15.1516973 60.5036742,15.189364 59.900454,15.189364 L56.4731703,15.189364 L56.4731703,12.597092 C56.4731703,10.8588128 57.1229302,9.47363902 59.1430811,9.47363902 C59.9466671,9.47363902 60.5355172,9.7940466 60.5355172,10.1247123 C60.5355172,10.3479879 60.3353147,10.4202759 60.1775695,10.5050661 C59.9352363,10.6385826 59.7000882,10.8782071 59.7000882,11.2398077 C59.7000882,11.7342836 60.184428,12.0643082 60.6045919,12.0643082 C61.2180999,12.0643082 61.669127,11.5871429 61.669127,10.8782071 C61.669127,10.0498598 60.7958131,9 58.968353,9 C55.7905875,9 54.64669,11.531845 54.64669,13.9332188 L54.64669,15.189364 L53,15.189364 L53,15.6444101 L54.64669,15.6444101 L54.64669,22.5390234" id="Fill-5" fill="#FEFEFE"></path>
                <path d="M4.76805914,17.9863269 C6.78464625,18.3862995 7.69639839,19.5497251 7.69639839,20.8245476 C7.69639839,22.2835911 6.47370767,23.4711847 4.61593328,23.4711847 C2.71820495,23.4711847 0.875643145,21.9902139 0.580920185,18.9972219 L0.0595129743,18.9972219 L0.0595129743,23.8109774 L0.580920185,23.8109774 C0.618868065,23.4903911 0.761297992,23.2480708 1.16067017,23.2480708 C1.90591972,23.2480708 2.71135093,24 4.64669279,24 C7.45266267,24 9,22.3735409 9,19.8818351 C9,17.9344697 7.97824916,16.4875902 5.28428404,15.8561809 L4.25501049,15.627145 C1.87716626,15.0981697 1.18190092,14.0543037 1.18190092,12.9857896 C1.18190092,11.5281865 2.36330033,10.5409793 3.79395211,10.5409793 C6.02819622,10.5409793 7.3523599,12.2733935 7.62685514,14.4326691 L8.1816966,14.4326691 L8.1816966,10.4387054 L7.68101863,10.4387054 C7.62284303,10.6869477 7.494957,10.929428 7.09558482,10.929428 C6.41235581,10.929428 5.84447499,10 3.74781284,10 C1.6610138,10 0,11.466406 0,13.6356049 C0,15.9690183 1.21500084,17.1918236 3.7643628,17.7611323 L4.76805914,17.9863269" id="Fill-7" fill="#FEFEFE"></path>
                <path d="M41.5727861,22.1311128 C41.5727861,23.4984971 42.5147034,24 43.766826,24 C45.2626933,24 45.7604723,23.185813 46,22.6786036 L45.6169244,22.4179496 C45.3792522,22.8304979 44.9956705,23.3444209 44.3418611,23.3444209 C43.8378409,23.3444209 43.4370537,23.0904805 43.4370537,22.3145608 L43.4370537,15.9663864 L45.620298,15.9663864 L45.620298,15.4888845 L43.4397526,15.4888845 L43.4397526,13 L43.0705089,13 C42.7430981,14.9390439 41.8345797,15.4888845 40,15.4888845 L40,15.9663864 L41.5727861,15.9663864 L41.5727861,22.1311128" id="Fill-9" fill="#FEFEFE"></path>
                <path d="M36.468924,23.4972733 L37.8034732,23.4972733 L37.8034732,17.1700686 C37.8034732,16.1569025 37.2950888,15.7430469 36.6433886,15.7430469 C35.471361,15.7430469 34.5935508,16.9605991 34.1953971,17.5585073 L34.1953971,23.4972733 L35.5672278,23.4972733 L35.5672278,24 L31,24 L31,23.4972733 L32.4071755,23.4972733 L32.4071755,15.9572491 L31,15.9572491 L31,15.4587294 L32.4768968,15.4587294 C33.3737512,15.4587294 33.8025694,15.4568012 34.1392327,15 L34.1392327,16.6924081 L34.178451,16.6924081 C34.5643389,16.1926613 35.4818515,15 37.0731751,15 C38.7603654,15 39.5931473,16.1926613 39.5931473,17.6252921 L39.5931473,23.4972733 L41,23.4972733 L41,24 L36.468924,24 L36.468924,23.4972733" id="Fill-11" fill="#FEFEFE"></path>
                <path d="M16.4955605,20.8988055 C16.2910624,21.9749147 15.4670025,23.2998294 14.0515872,23.2998294 C12.6666745,23.2998294 12.0061146,22.4503413 12.0061146,20.5633106 L12.0061146,18.6537543 C12.0061146,16.8030717 12.6581469,15.4860068 14.1530983,15.4860068 C15.044395,15.4860068 15.5406349,15.9406143 15.5406349,16.2945392 C15.5406349,16.487372 15.4168209,16.5979522 15.3041584,16.7380546 C15.1839522,16.8819113 15.06473,17.0667235 15.06473,17.3431741 C15.06473,17.7703072 15.3815626,18.1866894 15.9537308,18.1866894 C16.486213,18.1866894 16.9229237,17.747099 16.9229237,17.0656997 C16.9229237,16.0609215 15.7777674,15 13.9971419,15 C11.7471711,15 10,16.7921502 10,19.5015358 C10,21.9749147 11.2227246,24 13.8465972,24 C15.6231229,24 16.7599157,22.5054608 17,20.8988055 L16.4955605,20.8988055" id="Fill-13" fill="#FEFEFE"></path>
                <path d="M69.4963687,20.8983408 C69.2935058,21.975064 68.4677865,23.3016403 67.0521741,23.3016403 C65.6680489,23.3016403 65.0058336,22.4512184 65.0058336,20.5643501 L65.0058336,18.6525647 C65.0058336,16.8052906 65.6585372,15.4857116 67.1543435,15.4857116 C68.0441852,15.4857116 68.5419127,15.9415568 68.5419127,16.2938087 C68.5419127,16.4883664 68.4185878,16.5987864 68.3044466,16.7377074 C68.1840737,16.882431 68.0668166,17.0672608 68.0668166,17.3447615 C68.0668166,17.7714232 68.3807047,18.1857969 68.9550183,18.1857969 C69.4868569,18.1857969 69.9237419,17.7470181 69.9237419,17.0645302 C69.9237419,16.0593154 68.7774107,15 66.9957595,15 C64.74918,15 63,16.7914668 63,19.501792 C63,21.975064 64.2242292,24 66.8455393,24 C68.6242386,24 69.76155,22.5048071 70,20.8983408 L69.4963687,20.8983408" id="Fill-15" fill="#FEFEFE"></path>
                <path d="M28.2277566,18.0976752 C28.2277566,18.1765208 28.1908182,18.2367643 28.1018446,18.2367643 L25.0571514,18.2367643 L25.0571514,17.6148741 C25.0571514,16.2929308 25.6997201,15.4828011 26.6642959,15.4828011 C27.6534438,15.4828011 28.2277566,16.2331993 28.2277566,17.6148741 L28.2277566,18.0976752 L28.2277566,18.0976752 Z M29.3489194,20.8770669 C29.1385307,22.0821071 28.2997063,23.3188903 26.988712,23.3188903 C25.6627816,23.3188903 24.9799018,22.4570502 24.9799018,20.7221063 L24.9799018,18.7574522 L29.8326527,18.7574522 C29.9442711,18.7574522 30,18.6963554 30,18.5738205 C30,18.4773968 29.9980728,18.3780719 29.9980728,18.2741391 C29.9980728,17.0129513 28.9313541,15 26.5692195,15 C24.508053,15 23,17.1436779 23,19.501024 C23,22.3126707 24.5390492,24 26.6512871,24 C28.3125545,24 29.5377874,22.7529771 29.8495159,20.8770669 L29.3489194,20.8770669 Z" id="Fill-17" fill="#FEFEFE"></path>
                <g transform="translate(9.000000, 0.000000)">
                    <mask id="mask-2" fill="white">
                        <use xlink:href="#path-1"></use>
                    </mask>
                    <g id="Clip-20"></g>
                    <path d="M3.54667273,5.81178333 L4.52521818,5.81178333 C6.58485455,5.81178333 7.70521818,7.05111667 7.70521818,8.58845 C7.70521818,10.27295 6.59812727,11.4786167 4.70812727,11.4786167 L3.54667273,11.4786167 L3.54667273,5.81178333 L3.54667273,5.81178333 Z M1.47649091,11.4786167 L0.0903090909,11.4786167 L0.0903090909,11.93045 L5.71121818,11.93045 C7.6194,11.93045 9.8794,10.93195 9.8794,8.59645 C9.8794,6.73928333 8.06849091,5.74361667 6.29121818,5.65211667 L6.29121818,5.56678333 C7.79376364,5.44811667 9.30321818,4.56111667 9.30321818,2.72978333 C9.30321818,1.14345 7.83085455,0.04795 5.14394545,0.04795 L0.0814,0.04795 L0.0814,0.489283333 L1.47649091,0.489283333 L1.47649091,11.4786167 Z M3.54667273,0.489283333 L4.07812727,0.489283333 C6.12085455,0.489283333 7.20485455,1.54311667 7.20485455,2.84978333 C7.20485455,4.71895 5.82921818,5.35878333 4.14958182,5.35878333 L3.54667273,5.35878333 L3.54667273,0.489283333 Z" id="Fill-19" fill="#FEFEFE" mask="url(#mask-2)"></path>
                </g>
                <path d="M24.2375506,8.89507708 C24.2375506,10.2252178 24.0674897,11.5384083 22.4983726,11.5384083 C20.9268145,11.5384083 20.7593574,10.2252178 20.7593574,8.89507708 L20.7593574,8.10462024 C20.7593574,6.77311742 20.8916632,5.46053229 22.4983726,5.46053229 C24.1499977,5.46053229 24.2375506,6.77311742 24.2375506,8.10462024 L24.2375506,8.89507708 M19,8.49931896 C19,10.4113679 20.4504812,12 22.4996745,12 C24.5488678,12 26,10.3957797 26,8.49931896 C26,6.59468575 24.5488678,5 22.4996745,5 C20.4504812,5 19,6.57682745 19,8.49931896" id="Fill-21" fill="#FEFEFE"></path>
                <path d="M42.2386918,8.89532848 C42.2386918,10.226356 42.0671982,11.5395274 40.4998373,11.5395274 C38.9269444,11.5395274 38.7590303,10.226356 38.7590303,8.89532848 L38.7590303,8.10482285 C38.7590303,6.77424934 38.8913114,5.46198578 40.4998373,5.46198578 C42.1475757,5.46198578 42.2386918,6.77424934 42.2386918,8.10482285 L42.2386918,8.89532848 M37,8.5003783 C37,10.4120279 38.4515132,12 40.4998373,12 C42.5484868,12 44,10.3949286 44,8.5003783 C44,6.59432759 42.5484868,5 40.4998373,5 C38.4515132,5 37,6.57949804 37,8.5003783" id="Fill-23" fill="#FEFEFE"></path>
                <path d="M49.1826218,11.5767051 L50.2152951,11.5767051 L50.2152951,6.86212414 C50.2152951,6.06904905 49.6577461,5.74764984 49.0684433,5.74764984 C48.293516,5.74764984 47.4935911,6.43571794 47.1275781,7.16485543 L47.1275781,11.5767051 L48.3870883,11.5767051 L48.3870883,12 L44,12 L44,11.5767051 L45.380107,11.5767051 L45.380107,5.76896238 L44.0393544,5.76896238 L44.0393544,5.35531258 L45.3419349,5.35531258 C46.1320634,5.35531258 46.7836915,5.35531258 47.0801164,5 L47.0801164,6.28917483 L47.1135592,6.28917483 C47.7923806,5.53047981 48.7142535,5 49.7773295,5 C51.4376466,5 52.0152951,6.0870947 52.0152951,6.99731093 L52.0152951,11.5767051 L53,11.5767051 L53,12 L49.1826218,12 L49.1826218,11.5767051" id="Fill-25" fill="#FEFEFE"></path>
                <path d="M30.1044873,9.10252475 C31.2504455,9.22962691 31.7385712,9.7575548 31.7385712,10.3260343 C31.7385712,11.1352514 30.8976187,11.5639186 29.970938,11.5639186 C28.1908634,11.5639186 27.5526648,10.3378367 27.4508019,9.52453417 L27,9.52453417 L27.0585129,11.9055813 L27.4962903,11.9055813 C27.5314758,11.6592452 27.6350883,11.5608923 27.8362871,11.5608923 C28.2499595,11.5608923 28.7456666,12 30.0000972,12 C31.8643447,12 33,11.0934893 33,9.72744369 C33,8.75057282 32.2894865,7.86781808 30.6946703,7.68684882 L29.7382472,7.56095716 C28.4851774,7.39905322 28.0468168,7.06162725 28.0468168,6.48346375 C28.0468168,5.91816177 28.6614936,5.43366046 29.7250283,5.43366046 C30.9574923,5.43366046 31.6726713,6.03194847 31.8705654,6.96932688 L32.299595,6.96932688 L32.252357,5.09290562 L31.8705654,5.09290562 C31.8485987,5.23226406 31.7741455,5.37631317 31.5727523,5.37631317 C31.2230358,5.37631317 30.7395756,5 29.6964523,5 C28.2184675,5 27.0795075,5.80528295 27.0795075,6.94103152 C27.0795075,8.38061476 28.2874777,8.90430591 29.5543496,9.04094073 L30.1044873,9.10252475" id="Fill-27" fill="#FEFEFE"></path>
                <path d="M37.683091,10.5725654 C37.4875598,10.8607273 37.061567,11.2995733 36.4281393,11.2995733 C35.9039906,11.2995733 35.4370182,11.0953881 35.4370182,10.3737979 L35.4370182,4.91988352 L37.6770417,4.91988352 L37.6770417,4.47104835 L35.4370182,4.47104835 L35.4370182,2 L35.0559079,2 C34.732169,3.72947989 33.611084,4.47020181 32,4.47020181 L32,4.91988352 L33.4165284,4.91988352 L33.4165284,10.3517879 C33.4165284,11.5403291 34.3895014,12 35.7492438,12 C37.0055615,12 37.6610401,11.4441623 38,10.9849993 L37.683091,10.5725654" id="Fill-29" fill="#FEFEFE"></path>
            </g>
        </g>
    </g>
</svg>